# xmcd CD database file
#
# Track frame offsets:
#	150
#	28386
#	62663
#	85536
#	109523
#	131562
#	158129
#	185919
#	212786
#	225014
#	260234
#	267717
#
# Disc length: 3760 seconds
#
# Revision: 0
# Processed by: cddbd v1.5.2PL0 Copyright (c) Steve Scherf et al.
# Submitted via: CDex 1.70beta2
#
DISCID=aa0eae0c
DTITLE=Simion, Nicolas Goup - Transsylvanian Jazz
DYEAR=2009
DGENRE=Jazz
TTITLE0=Transsylvanian wood
TTITLE1=Bear dance
TTITLE2=Children's song
TTITLE3=Colind (#3)
TTITLE4=Wedding song at the black sea
TTITLE5=Lullaby from pink
TTITLE6=The village is getting drunk
TTITLE7=Hora funk
TTITLE8=Donna and Girl's dance
TTITLE9=Dance from maramuresh
TTITLE10=Hora staccato
TTITLE11=Three leaved flower
EXTD=YEAR: 2009
EXTT0=
EXTT1=
EXTT2=
EXTT3=
EXTT4=
EXTT5=
EXTT6=
EXTT7=
EXTT8=
EXTT9=
EXTT10=
EXTT11=
PLAYORDER=
